<?xml version="1.0" encoding="iso-8859-1"?>
<!-- Generator: Adobe Illustrator 19.0.0, SVG Export Plug-In . SVG Version: 6.00 Build 0)  -->
<svg version="1.1" id="Layer_1" xmlns="http://www.w3.org/2000/svg" xmlns:xlink="http://www.w3.org/1999/xlink" x="0px" y="0px"
	 viewBox="0 0 512 512" style="enable-background:new 0 0 512 512;" xml:space="preserve">
<g>
	<g>
		<path d="M504.163,209.502c4.329,0,7.837-3.508,7.837-7.837v-41.393c0-7.202-5.859-13.061-13.061-13.061h-13.521
			c-7.201,0-13.061,5.859-13.061,13.061v1.6c-13.801,0.709-24.81,12.166-24.81,26.146v100.901c0,13.982,11.009,25.438,24.81,26.146
			v22.153h-69.044l-7.796-54.128c-0.617-4.285-4.599-7.249-8.874-6.639c-4.284,0.618-7.256,4.591-6.639,8.874l14.652,101.726
			c0.039,0.578,0.059,1.072,0.059,1.509c0,12.48-9.96,22.635-22.203,22.635c-9.795,0-18.557-6.689-21.308-16.269
			c-0.966-3.359-4.039-5.675-7.534-5.674c-3.496,0.001-6.568,2.317-7.532,5.677c-2.747,9.578-11.506,16.266-21.302,16.266
			c-9.797,0-18.558-6.688-21.305-16.264c-0.963-3.36-4.035-5.676-7.532-5.677h-0.001c-3.495,0-6.567,2.314-7.533,5.674
			c-2.75,9.578-11.513,16.267-21.308,16.267c-9.795,0-18.556-6.689-21.305-16.268c-0.964-3.359-4.037-5.675-7.533-5.675
			c-3.496,0-6.568,2.315-7.533,5.676c-2.748,9.578-11.51,16.267-21.304,16.267c-9.796,0-18.557-6.688-21.305-16.265
			c-0.964-3.36-4.036-5.676-7.533-5.676s-6.568,2.315-7.533,5.676c-2.748,9.576-11.51,16.265-21.305,16.265
			c-12.243,0-22.203-10.154-22.203-22.635c0-0.457,0.019-0.944,0.06-1.533l13.307-92.373h102.264c4.329,0,7.837-3.508,7.837-7.837
			c0-4.329-3.508-7.837-7.837-7.837H135.225l2.075-14.402h49.467c4.329,0,7.837-3.508,7.837-7.837c0-4.329-3.508-7.837-7.837-7.837
			h-47.21l2.075-14.404h231.046l3.106,21.57c0.619,4.284,4.595,7.252,8.874,6.639c4.284-0.618,7.256-4.59,6.639-8.874l-3.361-23.336
			c-0.579-4.003-2.911-7.404-6.135-9.487c-0.148-4.198-3.589-7.557-7.822-7.557h-8.574v-21.211
			c14.571-3.534,25.427-16.684,25.427-32.329V110.64c0-6.512-5.298-11.81-11.81-11.81h-42.907c-6.512,0-11.81,5.298-11.81,11.81
			v49.277c0,15.646,10.857,28.796,25.428,32.329v21.211h-8.548c-3.466,0-6.401,2.252-7.435,5.372h-30.511v-10.018
			c0-5.725-3.707-10.589-8.842-12.348c2.685-7.624,4.111-16.067,4.111-24.846c0-15.529-4.647-30.318-12.627-40.907
			c10.266-0.461,18.9-7.951,22.987-19.724c12.14-4.222,19.746-13.285,19.75-23.992c0.003-10.718-7.609-19.789-19.762-24.021
			c-3.961-11.398-12.174-18.806-22.009-19.691c-3.019-6.553-9.245-11.848-17.698-14.791c-4.227-12.162-13.294-19.781-24.005-19.781
			c-10.706,0-19.765,7.613-23.985,19.767c-12.14,4.224-19.746,13.285-19.749,23.993c-0.003,8.711,5.026,16.336,13.434,21.158
			c-1.337,2.177-2.493,4.585-3.408,7.22c-12.14,4.224-19.746,13.285-19.749,23.993c-0.003,10.718,7.608,19.79,19.761,24.022
			c1.856,5.339,4.645,9.802,8.097,13.128c-3.897,8.803-6.059,19.041-6.059,29.624c0,8.778,1.424,17.221,4.111,24.846
			c-5.135,1.76-8.842,6.624-8.842,12.348v10.018h-28.965c-1.033-3.119-3.969-5.372-7.434-5.372h-8.578v-21.211
			c14.571-3.534,25.428-16.684,25.428-32.329V110.64c0-6.512-5.297-11.81-11.808-11.81h-42.909c-6.512,0-11.808,5.298-11.808,11.81
			v49.277c0,15.646,10.855,28.795,25.424,32.329v21.211h-8.547c-4.329,0-7.837,3.508-7.837,7.837c0,0.085,0.01,0.166,0.013,0.25
			c-2.822,2.109-4.833,5.282-5.36,8.961l-15.372,106.713H39.642v-22.243c13.248-1.276,23.641-12.473,23.641-26.058v-100.9
			c0-13.585-10.393-24.782-23.641-26.058v-1.69c0-7.202-5.859-13.061-13.061-13.061h-13.52C5.859,147.21,0,153.069,0,160.272
			v329.955c0,7.203,5.859,13.061,13.061,13.061h13.521c7.201,0,13.061-5.859,13.061-13.061v-64.855H53.29
			c4.329,0,7.837-3.508,7.837-7.837c0-4.329-3.508-7.837-7.837-7.837H39.642v-30.251h65.279l-0.778,5.407
			c-0.051,0.346-0.088,0.692-0.108,0.987c-0.07,0.966-0.104,1.855-0.104,2.72c0,7.809,2.327,15.075,6.308,21.136H83.592
			c-4.329,0-7.837,3.508-7.837,7.837c0,4.329,3.508,7.837,7.837,7.837h38.248v64.855c0,7.203,5.859,13.061,13.061,13.061h21.508
			c7.203,0,13.061-5.859,13.061-13.061v-75.559c0.4-0.431,0.794-0.867,1.174-1.318c7.058,8.354,17.54,13.52,28.838,13.52
			c11.298,0,21.779-5.167,28.837-13.522c2.404,2.846,5.212,5.309,8.307,7.337v39.399h-32.801c-7.202,0-13.061,5.86-13.061,13.061
			v15.917c0,7.201,5.859,13.061,13.061,13.061H310.49c7.203,0,13.061-5.86,13.061-13.061v-15.917
			c0-7.201-5.859-13.061-13.061-13.061h-32.802v-39.399c3.095-2.027,5.904-4.492,8.307-7.337c7.058,8.354,17.54,13.521,28.84,13.521
			c10.704,0,20.67-4.645,27.691-12.237v75.594c0,7.202,5.859,13.061,13.061,13.061h21.509c7.202,0,13.061-5.859,13.061-13.061
			v-64.855h82.199v64.855c0,7.202,5.86,13.061,13.061,13.061h13.521c7.202,0,13.061-5.859,13.061-13.061V228.83
			c0-4.329-3.508-7.837-7.837-7.837c-4.329,0-7.837,3.508-7.837,7.837v258.786h-8.297v-324.73h8.297v38.78
			C496.327,205.994,499.834,209.502,504.163,209.502z M339.983,114.503h35.181v14.575h-35.181V114.503z M339.983,159.917v-15.166
			h35.181v15.166c0,9.703-7.891,17.598-17.59,17.598C347.874,177.516,339.983,169.62,339.983,159.917z M287.568,211.424v6.075
			h-63.137v-6.075H287.568z M229.163,171.617c0-8.355,1.628-16.33,4.563-23.05c0.572,0.045,1.147,0.077,1.728,0.077
			c7.888,0,14.874-4.143,19.698-11.178h15.991c7.336,7.794,11.692,20.469,11.692,34.151c0,8.852-1.765,17.165-5.044,24.133h-43.586
			C230.928,188.781,229.163,180.47,229.163,171.617z M274.841,71.029c1.682-7.388,5.612-12.163,10.012-12.163
			c4.407,0,8.347,4.78,10.035,12.178c0.67,2.934,2.959,5.226,5.893,5.896c7.392,1.69,12.167,5.634,12.166,10.05
			c-0.001,4.408-4.77,8.344-12.151,10.027c-2.937,0.671-5.23,2.964-5.898,5.901c-1.682,7.388-5.613,12.164-10.014,12.164
			c-2.439,0-4.731-1.469-6.582-4.031c0.58-1.974,0.888-4.035,0.89-6.165c0.003-10.562-7.4-19.518-19.247-23.825
			c2.12-1.809,5.212-3.267,8.998-4.13C271.879,76.259,274.173,73.965,274.841,71.029z M229.237,42.448
			c2.937-0.671,5.23-2.964,5.898-5.901c1.682-7.388,5.612-12.163,10.012-12.163c4.407,0,8.347,4.78,10.036,12.178
			c0.67,2.934,2.959,5.226,5.893,5.896c4.615,1.055,8.209,2.988,10.258,5.368c-4.547,3.432-8.206,8.622-10.466,15.133
			c-3.56,1.238-6.708,2.909-9.407,4.902c-4.431-4.33-9.969-6.779-16.037-6.779c-2.479,0-4.863,0.425-7.125,1.203
			c-6.843-1.802-11.214-5.588-11.214-9.811C217.088,48.067,221.856,44.13,229.237,42.448z M219.529,114.898
			c-7.391-1.69-12.167-5.635-12.166-10.051c0.002-4.408,4.771-8.345,12.151-10.028c2.937-0.671,5.23-2.964,5.898-5.901
			c1.682-7.388,5.612-12.163,10.012-12.163c4.407,0,8.347,4.78,10.036,12.178c0.67,2.934,2.959,5.226,5.893,5.896
			c7.392,1.69,12.167,5.635,12.166,10.05c-0.001,4.408-4.77,8.344-12.151,10.027c-2.937,0.671-5.23,2.964-5.898,5.901
			c-1.682,7.388-5.613,12.164-10.014,12.164c-4.406,0-8.345-4.78-10.034-12.177C224.752,117.86,222.462,115.569,219.529,114.898z
			 M138.357,114.503h35.179v14.575h-35.179V114.503z M138.357,159.917v-15.166h35.179v15.166c0,9.703-7.891,17.598-17.591,17.598
			C146.247,177.516,138.357,169.62,138.357,159.917z M39.642,177.831c4.567,1.137,7.967,5.267,7.967,10.188v100.901
			c0,4.92-3.4,9.051-7.967,10.188V177.831z M23.97,487.615h-8.297v-324.73h8.297V487.615z M107.179,363.775H39.642v-10.882h69.104
			L107.179,363.775z M153.797,487.615h-16.284v-60.998c1.411,0.162,2.842,0.253,4.293,0.253c4.151,0,8.189-0.703,11.99-1.999
			V487.615z M252.3,426.537h0.001c1.598,0.212,3.217,0.333,4.857,0.333c1.639,0,3.259-0.121,4.857-0.333v33.547H252.3V426.537z
			 M307.878,475.758v10.692h-101.44v-10.692H307.878z M374.485,487.615L374.485,487.615H358.2v-63.622
			c4.46,1.857,9.304,2.877,14.31,2.877c0.662,0,1.321-0.018,1.975-0.052V487.615z M404.078,409.699
			c3.982-6.063,6.308-13.329,6.308-21.136c0-0.83-0.033-1.713-0.106-2.725c-0.023-0.328-0.061-0.655-0.104-0.959l-0.782-5.429
			h62.961v30.25H404.078z M472.357,363.775h-65.219l-1.567-10.882h66.787V363.775z M472.357,299.33
			c-5.146-0.67-9.137-5.077-9.137-10.41V188.019c0-5.333,3.99-9.741,9.137-10.41V299.33z"/>
	</g>
</g>
<g>
	<g>
		<circle cx="245.164" cy="52.496" r="6.792"/>
	</g>
</g>
<g>
	<g>
		<circle cx="284.871" cy="86.977" r="6.792"/>
	</g>
</g>
<g>
	<g>
		<circle cx="235.436" cy="104.866" r="6.792"/>
	</g>
</g>
<g>
</g>
<g>
</g>
<g>
</g>
<g>
</g>
<g>
</g>
<g>
</g>
<g>
</g>
<g>
</g>
<g>
</g>
<g>
</g>
<g>
</g>
<g>
</g>
<g>
</g>
<g>
</g>
<g>
</g>
</svg>
