<?xml version='1.0' encoding='iso-8859-1'?>
<svg version="1.1" xmlns="http://www.w3.org/2000/svg" viewBox="0 0 463 463" xmlns:xlink="http://www.w3.org/1999/xlink" enable-background="new 0 0 463 463">
  <g>
    <path d="m338.487,95.183l8.436-14.612 7.156,4.132c3.57,2.065 7.629,3.156 11.739,3.156 8.38,0 16.185-4.505 20.366-11.754 3.139-5.436 3.972-11.769 2.348-17.831-1.625-6.063-5.513-11.131-10.949-14.27l-27.702-15.994c-5.428-3.143-11.758-3.98-17.819-2.362-6.072,1.622-11.147,5.515-14.29,10.958-6.479,11.222-2.621,25.622 8.601,32.101l7.56,4.365-8.389,14.53c-25.964-13.939-55.349-22.288-86.544-23.447v-17.155h24.5c12.958,0 23.5-10.542 23.5-23.5s-10.542-23.5-23.5-23.5h-64c-12.958,0-23.5,10.542-23.5,23.5s10.542,23.5 23.5,23.5h24.5v17.155c-106.542,3.96-192,91.852-192,199.345 0,110.005 89.495,199.5 199.5,199.5s199.5-89.495 199.5-199.5c0-70.667-36.936-132.866-92.513-168.317zm-8.574-44.627c-0.587-2.193-0.286-4.484 0.849-6.45 1.138-1.971 2.975-3.38 5.172-3.967 0.729-0.194 1.467-0.291 2.201-0.291 1.472,0 2.925,0.388 4.237,1.147l27.711,16c1.966,1.135 3.372,2.968 3.959,5.16 0.587,2.193 0.286,4.484-0.851,6.452-1.513,2.623-4.338,4.252-7.375,4.252-1.498,0-2.92-0.384-4.234-1.144l-27.711-16c-1.964-1.134-3.371-2.967-3.958-5.159zm-138.913-27.056c0-4.687 3.813-8.5 8.5-8.5h64c4.687,0 8.5,3.813 8.5,8.5s-3.813,8.5-8.5,8.5h-64c-4.687,0-8.5-3.813-8.5-8.5zm40.5,424.5c-101.734,0-184.5-82.767-184.5-184.5s82.766-184.5 184.5-184.5 184.5,82.767 184.5,184.5-82.766,184.5-184.5,184.5z"/>
    <path d="M231.5,96C139.14,96,64,171.141,64,263.5S139.14,431,231.5,431S399,355.859,399,263.5S323.86,96,231.5,96z M231.5,416   C147.411,416,79,347.589,79,263.5S147.411,111,231.5,111S384,179.411,384,263.5S315.589,416,231.5,416z"/>
    <path d="m231.5,144c-4.142,0-7.5,3.357-7.5,7.5s3.358,7.5 7.5,7.5c57.622,0 104.5,46.879 104.5,104.5s-46.878,104.5-104.5,104.5c-55.099,0-100.37-42.866-104.228-97h73.638c3.374,13.759 15.806,24 30.591,24s27.216-10.241 30.591-24h17.408c4.142,0 7.5-3.357 7.5-7.5s-3.358-7.5-7.5-7.5h-17.409c-3.374-13.759-15.806-24-30.591-24s-27.216,10.241-30.591,24h-97.409c-4.142,0-7.5,3.357-7.5,7.5s3.358,7.5 7.5,7.5h8.742c3.885,62.411 55.885,112 119.258,112 65.893,0 119.5-53.607 119.5-119.5s-53.607-119.5-119.5-119.5zm0,103c9.098,0 16.5,7.402 16.5,16.5s-7.402,16.5-16.5,16.5-16.5-7.402-16.5-16.5 7.402-16.5 16.5-16.5z"/>
  </g>
</svg>
